<svg xmlns="http://www.w3.org/2000/svg" xmlns:xlink="http://www.w3.org/1999/xlink" width="500" zoomAndPan="magnify" viewBox="0 0 375 374.999991" height="500" preserveAspectRatio="xMidYMid meet" version="1.0"><defs><g/><clipPath id="fdef830c8f"><path d="M 6.292969 119.230469 L 327 119.230469 L 327 227.980469 L 6.292969 227.980469 Z M 6.292969 119.230469 " clip-rule="nonzero"/></clipPath><clipPath id="cee3641fc9"><path d="M 29.902344 142 L 232.402344 142 L 232.402344 210.800781 L 29.902344 210.800781 Z M 29.902344 142 " clip-rule="nonzero"/></clipPath><clipPath id="0108bc9d99"><path d="M 306 133 L 369 133 L 369 196 L 306 196 Z M 306 133 " clip-rule="nonzero"/></clipPath><clipPath id="e6dd009898"><path d="M 307.308594 196.007812 L 305.949219 134.523438 L 367.433594 133.164062 L 368.792969 194.648438 Z M 307.308594 196.007812 " clip-rule="nonzero"/></clipPath><clipPath id="8b30e0139a"><path d="M 307.308594 196.007812 L 305.949219 134.523438 L 367.433594 133.164062 L 368.792969 194.648438 Z M 307.308594 196.007812 " clip-rule="nonzero"/></clipPath><clipPath id="049fd401b2"><path d="M 307.308594 196.007812 L 305.949219 134.523438 L 367.433594 133.164062 L 368.792969 194.648438 Z M 307.308594 196.007812 " clip-rule="nonzero"/></clipPath><clipPath id="07403d5e35"><path d="M 321 140 L 356 140 L 356 188 L 321 188 Z M 321 140 " clip-rule="nonzero"/></clipPath><clipPath id="76fe97667e"><path d="M 307.308594 196.007812 L 305.949219 134.523438 L 367.433594 133.164062 L 368.792969 194.648438 Z M 307.308594 196.007812 " clip-rule="nonzero"/></clipPath><clipPath id="ad29941d22"><path d="M 307.308594 196.007812 L 305.949219 134.523438 L 367.433594 133.164062 L 368.792969 194.648438 Z M 307.308594 196.007812 " clip-rule="nonzero"/></clipPath><clipPath id="4e4639772d"><path d="M 307.308594 196.007812 L 305.949219 134.523438 L 367.433594 133.164062 L 368.792969 194.648438 Z M 307.308594 196.007812 " clip-rule="nonzero"/></clipPath><clipPath id="1d7307e7fd"><path d="M 39.683594 153.054688 L 185.933594 153.054688 L 185.933594 202.554688 L 39.683594 202.554688 Z M 39.683594 153.054688 " clip-rule="nonzero"/></clipPath></defs><g clip-path="url(#fdef830c8f)"><path fill="#000000" d="M 116.371094 121.644531 L 103.613281 160.644531 C 103.539062 160.871094 103.519531 161.105469 103.554688 161.339844 C 103.589844 161.578125 103.679688 161.792969 103.816406 161.988281 C 103.957031 162.183594 104.132812 162.335938 104.34375 162.449219 C 104.554688 162.5625 104.78125 162.621094 105.019531 162.625 L 325.328125 164.8125 C 325.527344 164.8125 325.722656 164.847656 325.90625 164.925781 C 326.09375 165.003906 326.253906 165.113281 326.398438 165.253906 C 326.539062 165.394531 326.648438 165.558594 326.722656 165.742188 C 326.800781 165.929688 326.839844 166.121094 326.839844 166.320312 C 326.839844 166.519531 326.800781 166.714844 326.722656 166.898438 C 326.648438 167.082031 326.539062 167.246094 326.398438 167.390625 C 326.253906 167.53125 326.089844 167.640625 325.90625 167.714844 C 325.722656 167.792969 325.527344 167.832031 325.328125 167.832031 L 93.25 190.949219 C 92.683594 191.019531 92.285156 191.3125 92.054688 191.835938 L 77.628906 226.253906 C 77.53125 226.476562 77.390625 226.664062 77.203125 226.820312 C 77.015625 226.972656 76.804688 227.078125 76.566406 227.128906 C 76.328125 227.179688 76.09375 227.175781 75.859375 227.113281 C 75.621094 227.050781 75.414062 226.9375 75.234375 226.773438 L 54.769531 207.875 C 54.566406 207.671875 54.320312 207.542969 54.035156 207.484375 C 53.753906 207.429688 53.476562 207.453125 53.207031 207.5625 L 8.375 225.523438 C 8.050781 225.640625 7.722656 225.644531 7.390625 225.535156 C 7.0625 225.421875 6.800781 225.222656 6.609375 224.933594 C 6.421875 224.644531 6.339844 224.324219 6.367188 223.980469 C 6.394531 223.632812 6.527344 223.332031 6.761719 223.078125 L 37.640625 191.835938 C 37.765625 191.695312 37.863281 191.539062 37.929688 191.363281 C 38 191.1875 38.03125 191.007812 38.03125 190.820312 C 38.03125 190.632812 38 190.449219 37.929688 190.277344 C 37.863281 190.101562 37.765625 189.945312 37.640625 189.804688 L 18.0625 166.53125 C 17.871094 166.308594 17.753906 166.054688 17.707031 165.765625 C 17.664062 165.480469 17.703125 165.199219 17.816406 164.933594 C 17.933594 164.667969 18.113281 164.453125 18.355469 164.289062 C 18.597656 164.125 18.863281 164.039062 19.15625 164.03125 L 67.527344 162.675781 C 68.03125 162.675781 68.449219 162.484375 68.777344 162.101562 L 113.921875 120.082031 C 114.175781 119.859375 114.46875 119.734375 114.804688 119.707031 C 115.140625 119.683594 115.453125 119.761719 115.734375 119.941406 C 116.019531 120.121094 116.21875 120.371094 116.339844 120.6875 C 116.457031 121.003906 116.464844 121.320312 116.371094 121.644531 Z M 116.371094 121.644531 " fill-opacity="1" fill-rule="nonzero"/></g><g fill="#000000" fill-opacity="1"><g transform="translate(113.466154, 206.90701)"><g><path d="M 3.75 0 L 3.75 -13.09375 L 32.09375 -45.84375 L 32.09375 -48.765625 L 5.75 -48.765625 L 5.75 -61.4375 L 52.9375 -61.4375 L 52.9375 -48.34375 L 24.671875 -15.59375 L 24.671875 -12.671875 L 52.9375 -12.671875 L 52.9375 0 Z M 3.75 0 "/></g></g></g><g fill="#000000" fill-opacity="1"><g transform="translate(171.45206, 206.90701)"><g><path d="M 3.328125 0 L 3.328125 -11.75 L 10.171875 -11.75 L 10 -49.6875 L 3.328125 -49.6875 L 3.328125 -61.4375 L 31.671875 -61.4375 L 31.671875 -49.6875 L 24.921875 -49.6875 L 24.75 -11.75 L 31.671875 -11.75 L 31.671875 0 Z M 3.328125 0 "/></g></g></g><g fill="#000000" fill-opacity="1"><g transform="translate(202.270083, 206.90701)"><g><path d="M 5.828125 0 L 5.828125 -61.4375 L 21.421875 -61.4375 L 21.421875 -12.671875 L 49.59375 -12.671875 L 49.59375 0 Z M 5.828125 0 "/></g></g></g><g fill="#000000" fill-opacity="1"><g transform="translate(249.3132, 206.90701)"><g><path d="M 5.828125 0 L 5.828125 -61.4375 L 45.9375 -61.4375 L 58.6875 -48.6875 L 58.6875 -12.75 L 45.9375 0 Z M 21.421875 -11.84375 L 39.171875 -11.84375 L 43.59375 -16.25 L 43.59375 -45.1875 L 39.171875 -49.59375 L 21.421875 -49.59375 Z M 21.421875 -11.84375 "/></g></g></g><g clip-path="url(#cee3641fc9)"><path fill="#ffffff" d="M 99.472656 143.324219 L 91.410156 167.976562 C 91.363281 168.117188 91.351562 168.265625 91.375 168.414062 C 91.394531 168.566406 91.453125 168.699219 91.539062 168.824219 C 91.625 168.949219 91.738281 169.042969 91.871094 169.117188 C 92.003906 169.1875 92.148438 169.222656 92.296875 169.226562 L 231.539062 170.609375 C 231.800781 170.609375 232.027344 170.703125 232.214844 170.886719 C 232.398438 171.074219 232.492188 171.300781 232.492188 171.5625 C 232.492188 171.824219 232.398438 172.050781 232.214844 172.238281 C 232.027344 172.421875 231.800781 172.515625 231.539062 172.515625 L 84.859375 187.128906 C 84.503906 187.171875 84.25 187.359375 84.105469 187.6875 L 74.988281 209.441406 C 74.925781 209.582031 74.835938 209.699219 74.71875 209.796875 C 74.601562 209.894531 74.464844 209.960938 74.316406 209.992188 C 74.164062 210.027344 74.015625 210.023438 73.867188 209.984375 C 73.71875 209.945312 73.589844 209.871094 73.472656 209.769531 L 60.539062 197.824219 C 60.253906 197.542969 59.925781 197.476562 59.554688 197.625 L 31.21875 208.980469 C 31.011719 209.054688 30.804688 209.054688 30.597656 208.984375 C 30.386719 208.917969 30.222656 208.789062 30.101562 208.605469 C 29.980469 208.421875 29.929688 208.222656 29.949219 208.003906 C 29.964844 207.785156 30.050781 207.59375 30.199219 207.433594 L 49.714844 187.6875 C 49.878906 187.507812 49.960938 187.292969 49.960938 187.046875 C 49.960938 186.800781 49.878906 186.585938 49.714844 186.40625 L 37.339844 171.695312 C 37.074219 171.390625 37.023438 171.054688 37.1875 170.6875 C 37.347656 170.316406 37.628906 170.125 38.03125 170.113281 L 68.605469 169.257812 C 68.921875 169.257812 69.183594 169.136719 69.394531 168.898438 L 97.925781 142.339844 C 98.085938 142.199219 98.273438 142.117188 98.484375 142.101562 C 98.695312 142.085938 98.890625 142.136719 99.070312 142.25 C 99.25 142.363281 99.378906 142.519531 99.453125 142.71875 C 99.527344 142.921875 99.535156 143.121094 99.472656 143.324219 Z M 99.472656 143.324219 " fill-opacity="1" fill-rule="nonzero"/></g><g clip-path="url(#0108bc9d99)"><g clip-path="url(#e6dd009898)"><g clip-path="url(#8b30e0139a)"><g clip-path="url(#049fd401b2)"><path fill="#000000" d="M 306.628906 165.265625 C 306.605469 164.242188 328.222656 164.894531 332.75 160.160156 C 337.277344 155.429688 335.667969 133.863281 336.691406 133.839844 C 337.71875 133.820312 337.0625 155.433594 341.796875 159.960938 C 346.527344 164.488281 368.09375 162.878906 368.117188 163.90625 C 368.140625 164.929688 346.523438 164.277344 341.996094 169.007812 C 337.46875 173.738281 339.078125 195.304688 338.054688 195.328125 C 337.027344 195.351562 337.679688 173.734375 332.949219 169.207031 C 328.21875 164.679688 306.652344 166.289062 306.628906 165.265625 Z M 306.628906 165.265625 " fill-opacity="1" fill-rule="nonzero"/></g></g></g></g><g clip-path="url(#07403d5e35)"><g clip-path="url(#76fe97667e)"><g clip-path="url(#ad29941d22)"><g clip-path="url(#4e4639772d)"><path fill="#000000" d="M 321.300781 152.039062 C 320.589844 163.480469 327.601562 178.09375 336.957031 184.671875 C 346.3125 191.25 354.46875 187.308594 355.175781 175.863281 C 355.886719 164.417969 348.875 149.808594 339.519531 143.230469 C 330.160156 136.652344 322.003906 140.59375 321.300781 152.039062 Z M 336.476562 147.078125 C 344.117188 153.160156 350.292969 166.03125 350.265625 175.828125 C 350.242188 185.628906 344.027344 188.636719 336.382812 182.554688 C 328.742188 176.46875 322.566406 163.597656 322.59375 153.800781 C 322.617188 144.003906 328.832031 140.992188 336.476562 147.078125 Z M 336.476562 147.078125 " fill-opacity="1" fill-rule="nonzero"/></g></g></g></g><g clip-path="url(#1d7307e7fd)"><path fill="#000000" d="M 89.839844 154.148438 L 84.027344 171.921875 C 83.992188 172.023438 83.984375 172.128906 84 172.238281 C 84.015625 172.34375 84.054688 172.441406 84.121094 172.53125 C 84.183594 172.621094 84.261719 172.691406 84.359375 172.742188 C 84.453125 172.792969 84.558594 172.820312 84.667969 172.820312 L 185.046875 173.816406 C 185.234375 173.816406 185.398438 173.886719 185.53125 174.019531 C 185.667969 174.152344 185.734375 174.316406 185.734375 174.507812 C 185.734375 174.695312 185.667969 174.859375 185.53125 174.992188 C 185.398438 175.125 185.234375 175.195312 185.046875 175.195312 L 79.304688 185.726562 C 79.046875 185.757812 78.863281 185.894531 78.757812 186.132812 L 72.1875 201.8125 C 72.144531 201.914062 72.078125 202 71.992188 202.070312 C 71.90625 202.140625 71.8125 202.1875 71.703125 202.210938 C 71.59375 202.234375 71.488281 202.230469 71.378906 202.203125 C 71.273438 202.175781 71.179688 202.125 71.097656 202.050781 L 61.773438 193.4375 C 61.566406 193.234375 61.328125 193.1875 61.058594 193.296875 L 40.632812 201.480469 C 40.484375 201.535156 40.335938 201.535156 40.183594 201.484375 C 40.035156 201.433594 39.917969 201.34375 39.828125 201.210938 C 39.742188 201.078125 39.703125 200.933594 39.71875 200.777344 C 39.730469 200.617188 39.789062 200.480469 39.898438 200.367188 L 53.964844 186.132812 C 54.085938 186 54.144531 185.84375 54.144531 185.667969 C 54.144531 185.492188 54.085938 185.335938 53.964844 185.207031 L 45.046875 174.601562 C 44.855469 174.382812 44.820312 174.140625 44.933594 173.875 C 45.050781 173.609375 45.253906 173.472656 45.542969 173.460938 L 67.585938 172.84375 C 67.8125 172.84375 68.003906 172.757812 68.152344 172.585938 L 88.722656 153.4375 C 88.839844 153.335938 88.972656 153.28125 89.125 153.269531 C 89.277344 153.257812 89.417969 153.292969 89.550781 153.375 C 89.679688 153.457031 89.769531 153.570312 89.824219 153.714844 C 89.878906 153.859375 89.882812 154.003906 89.839844 154.148438 Z M 89.839844 154.148438 " fill-opacity="1" fill-rule="nonzero"/></g></svg>