<svg xmlns="http://www.w3.org/2000/svg" xmlns:xlink="http://www.w3.org/1999/xlink" width="500" zoomAndPan="magnify" viewBox="0 0 375 374.999991" height="500" preserveAspectRatio="xMidYMid meet" version="1.0"><defs><clipPath id="44b85d42a7"><path d="M 13.480469 136 L 318.730469 136 L 318.730469 239 L 13.480469 239 Z M 13.480469 136 " clip-rule="nonzero"/></clipPath><clipPath id="f0fa86a714"><path d="M 34.886719 156.582031 L 227.636719 156.582031 L 227.636719 221.832031 L 34.886719 221.832031 Z M 34.886719 156.582031 " clip-rule="nonzero"/></clipPath><clipPath id="4bfc3a4e1a"><path d="M 42.527344 165.320312 L 191.027344 165.320312 L 191.027344 215.570312 L 42.527344 215.570312 Z M 42.527344 165.320312 " clip-rule="nonzero"/></clipPath><clipPath id="1b2a25724e"><path d="M 291 144 L 361 144 L 361 214 L 291 214 Z M 291 144 " clip-rule="nonzero"/></clipPath><clipPath id="9c6133070a"><path d="M 292.003906 214.570312 L 290.460938 144.835938 L 360.195312 143.292969 L 361.738281 213.027344 Z M 292.003906 214.570312 " clip-rule="nonzero"/></clipPath><clipPath id="dfa163f3d1"><path d="M 292.003906 214.570312 L 290.460938 144.835938 L 360.195312 143.292969 L 361.738281 213.027344 Z M 292.003906 214.570312 " clip-rule="nonzero"/></clipPath><clipPath id="285108dfa4"><path d="M 292.003906 214.570312 L 290.460938 144.835938 L 360.195312 143.292969 L 361.738281 213.027344 Z M 292.003906 214.570312 " clip-rule="nonzero"/></clipPath><clipPath id="bef9289a8d"><path d="M 307 151 L 347 151 L 347 206 L 307 206 Z M 307 151 " clip-rule="nonzero"/></clipPath><clipPath id="fb9a4afa20"><path d="M 292.003906 214.570312 L 290.460938 144.835938 L 360.195312 143.292969 L 361.738281 213.027344 Z M 292.003906 214.570312 " clip-rule="nonzero"/></clipPath><clipPath id="30eb532aa2"><path d="M 292.003906 214.570312 L 290.460938 144.835938 L 360.195312 143.292969 L 361.738281 213.027344 Z M 292.003906 214.570312 " clip-rule="nonzero"/></clipPath><clipPath id="d06386b7d8"><path d="M 292.003906 214.570312 L 290.460938 144.835938 L 360.195312 143.292969 L 361.738281 213.027344 Z M 292.003906 214.570312 " clip-rule="nonzero"/></clipPath></defs><g clip-path="url(#44b85d42a7)"><path fill="#000000" d="M 118.128906 138.140625 L 106 175.21875 C 105.929688 175.433594 105.910156 175.65625 105.945312 175.878906 C 105.980469 176.105469 106.0625 176.3125 106.191406 176.496094 C 106.324219 176.683594 106.492188 176.828125 106.691406 176.933594 C 106.894531 177.039062 107.109375 177.09375 107.335938 177.101562 L 316.78125 179.179688 C 316.96875 179.179688 317.152344 179.214844 317.328125 179.289062 C 317.503906 179.359375 317.660156 179.464844 317.792969 179.601562 C 317.929688 179.734375 318.03125 179.890625 318.105469 180.066406 C 318.179688 180.242188 318.214844 180.425781 318.214844 180.613281 C 318.214844 180.804688 318.179688 180.988281 318.105469 181.164062 C 318.03125 181.339844 317.929688 181.496094 317.792969 181.628906 C 317.660156 181.765625 317.503906 181.867188 317.328125 181.941406 C 317.152344 182.015625 316.96875 182.050781 316.78125 182.050781 L 96.148438 204.027344 C 95.609375 204.09375 95.230469 204.375 95.007812 204.871094 L 81.296875 237.589844 C 81.207031 237.804688 81.070312 237.984375 80.890625 238.128906 C 80.714844 238.277344 80.511719 238.375 80.285156 238.421875 C 80.058594 238.472656 79.835938 238.464844 79.613281 238.40625 C 79.390625 238.347656 79.191406 238.242188 79.019531 238.085938 L 59.566406 220.117188 C 59.371094 219.925781 59.136719 219.800781 58.867188 219.75 C 58.597656 219.695312 58.335938 219.71875 58.082031 219.820312 L 15.460938 236.898438 C 15.148438 237.007812 14.835938 237.011719 14.523438 236.90625 C 14.210938 236.800781 13.964844 236.613281 13.78125 236.335938 C 13.601562 236.058594 13.523438 235.757812 13.550781 235.429688 C 13.574219 235.101562 13.699219 234.816406 13.925781 234.570312 L 43.28125 204.871094 C 43.398438 204.738281 43.492188 204.589844 43.554688 204.421875 C 43.621094 204.257812 43.652344 204.085938 43.652344 203.90625 C 43.652344 203.726562 43.621094 203.554688 43.554688 203.386719 C 43.492188 203.222656 43.398438 203.074219 43.28125 202.941406 L 24.667969 180.8125 C 24.484375 180.601562 24.375 180.363281 24.332031 180.089844 C 24.289062 179.8125 24.324219 179.550781 24.4375 179.296875 C 24.546875 179.042969 24.71875 178.835938 24.945312 178.683594 C 25.175781 178.527344 25.429688 178.445312 25.707031 178.4375 L 71.695312 177.148438 C 72.171875 177.148438 72.566406 176.964844 72.882812 176.605469 L 115.800781 136.65625 C 116.039062 136.445312 116.320312 136.324219 116.640625 136.300781 C 116.957031 136.277344 117.253906 136.351562 117.523438 136.523438 C 117.792969 136.695312 117.984375 136.929688 118.097656 137.230469 C 118.207031 137.53125 118.21875 137.835938 118.128906 138.140625 Z M 118.128906 138.140625 " fill-opacity="1" fill-rule="nonzero"/></g><g clip-path="url(#f0fa86a714)"><path fill="#ffffff" d="M 101.023438 158.035156 L 93.359375 181.46875 C 93.3125 181.605469 93.300781 181.742188 93.324219 181.886719 C 93.34375 182.027344 93.398438 182.15625 93.480469 182.273438 C 93.566406 182.390625 93.667969 182.484375 93.796875 182.550781 C 93.925781 182.617188 94.058594 182.652344 94.203125 182.65625 L 226.570312 183.96875 C 226.820312 183.96875 227.035156 184.058594 227.210938 184.234375 C 227.386719 184.414062 227.476562 184.628906 227.476562 184.878906 C 227.476562 185.128906 227.386719 185.34375 227.210938 185.519531 C 227.035156 185.695312 226.820312 185.785156 226.570312 185.785156 L 87.132812 199.675781 C 86.792969 199.714844 86.550781 199.894531 86.414062 200.207031 L 77.746094 220.886719 C 77.6875 221.019531 77.605469 221.132812 77.492188 221.226562 C 77.378906 221.320312 77.25 221.378906 77.109375 221.410156 C 76.964844 221.441406 76.824219 221.4375 76.683594 221.402344 C 76.542969 221.363281 76.417969 221.296875 76.308594 221.199219 L 64.011719 209.84375 C 63.742188 209.578125 63.429688 209.515625 63.074219 209.65625 L 36.136719 220.449219 C 35.941406 220.519531 35.746094 220.519531 35.546875 220.453125 C 35.347656 220.386719 35.191406 220.265625 35.078125 220.09375 C 34.964844 219.917969 34.914062 219.726562 34.929688 219.519531 C 34.949219 219.3125 35.027344 219.132812 35.167969 218.976562 L 53.71875 200.207031 C 53.878906 200.035156 53.957031 199.832031 53.957031 199.597656 C 53.957031 199.363281 53.878906 199.160156 53.71875 198.988281 L 41.957031 185.003906 C 41.707031 184.714844 41.65625 184.394531 41.8125 184.042969 C 41.964844 183.695312 42.230469 183.511719 42.613281 183.5 L 71.679688 182.6875 C 71.980469 182.6875 72.230469 182.570312 72.429688 182.34375 L 99.554688 157.097656 C 99.703125 156.960938 99.882812 156.886719 100.082031 156.871094 C 100.285156 156.855469 100.472656 156.902344 100.640625 157.011719 C 100.8125 157.121094 100.933594 157.269531 101.003906 157.460938 C 101.074219 157.648438 101.082031 157.839844 101.023438 158.035156 Z M 101.023438 158.035156 " fill-opacity="1" fill-rule="nonzero"/></g><g clip-path="url(#4bfc3a4e1a)"><path fill="#000000" d="M 93.550781 166.4375 L 87.640625 184.515625 C 87.605469 184.621094 87.59375 184.730469 87.613281 184.839844 C 87.628906 184.949219 87.667969 185.050781 87.734375 185.140625 C 87.796875 185.230469 87.878906 185.300781 87.976562 185.351562 C 88.074219 185.40625 88.179688 185.433594 88.289062 185.433594 L 190.417969 186.449219 C 190.609375 186.449219 190.773438 186.515625 190.910156 186.652344 C 191.046875 186.789062 191.117188 186.953125 191.117188 187.148438 C 191.117188 187.339844 191.046875 187.507812 190.910156 187.644531 C 190.773438 187.78125 190.609375 187.847656 190.417969 187.847656 L 82.835938 198.566406 C 82.574219 198.597656 82.386719 198.734375 82.28125 198.976562 L 75.59375 214.929688 C 75.550781 215.035156 75.484375 215.121094 75.394531 215.191406 C 75.308594 215.265625 75.210938 215.3125 75.101562 215.335938 C 74.992188 215.359375 74.882812 215.355469 74.773438 215.328125 C 74.664062 215.300781 74.566406 215.246094 74.484375 215.171875 L 64.996094 206.410156 C 64.789062 206.203125 64.546875 206.15625 64.273438 206.265625 L 43.492188 214.59375 C 43.339844 214.644531 43.1875 214.648438 43.035156 214.597656 C 42.882812 214.546875 42.761719 214.453125 42.671875 214.316406 C 42.585938 214.183594 42.546875 214.035156 42.558594 213.875 C 42.574219 213.714844 42.632812 213.574219 42.742188 213.457031 L 57.054688 198.976562 C 57.179688 198.84375 57.238281 198.683594 57.238281 198.503906 C 57.238281 198.324219 57.179688 198.167969 57.054688 198.035156 L 47.980469 187.246094 C 47.789062 187.023438 47.75 186.773438 47.867188 186.503906 C 47.984375 186.234375 48.191406 186.09375 48.488281 186.085938 L 70.910156 185.457031 C 71.144531 185.457031 71.335938 185.367188 71.492188 185.191406 L 92.417969 165.714844 C 92.535156 165.609375 92.671875 165.550781 92.828125 165.539062 C 92.984375 165.527344 93.125 165.5625 93.257812 165.648438 C 93.390625 165.730469 93.484375 165.847656 93.539062 165.992188 C 93.59375 166.140625 93.597656 166.289062 93.550781 166.4375 Z M 93.550781 166.4375 " fill-opacity="1" fill-rule="nonzero"/></g><g clip-path="url(#1b2a25724e)"><g clip-path="url(#9c6133070a)"><g clip-path="url(#dfa163f3d1)"><g clip-path="url(#285108dfa4)"><path fill="#000000" d="M 291.234375 179.703125 C 291.207031 178.539062 315.722656 179.28125 320.855469 173.914062 C 325.992188 168.546875 324.167969 144.089844 325.328125 144.0625 C 326.492188 144.035156 325.75 168.550781 331.117188 173.6875 C 336.484375 178.820312 360.941406 176.996094 360.96875 178.15625 C 360.996094 179.320312 336.480469 178.578125 331.34375 183.945312 C 326.210938 189.3125 328.035156 213.773438 326.871094 213.796875 C 325.710938 213.824219 326.449219 189.308594 321.085938 184.171875 C 315.71875 179.039062 291.257812 180.863281 291.234375 179.703125 Z M 291.234375 179.703125 " fill-opacity="1" fill-rule="nonzero"/></g></g></g></g><g clip-path="url(#bef9289a8d)"><g clip-path="url(#fb9a4afa20)"><g clip-path="url(#30eb532aa2)"><g clip-path="url(#d06386b7d8)"><path fill="#000000" d="M 307.871094 164.699219 C 307.066406 177.679688 315.019531 194.25 325.628906 201.710938 C 336.242188 209.171875 345.492188 204.703125 346.292969 191.722656 C 347.097656 178.742188 339.144531 162.171875 328.535156 154.710938 C 317.921875 147.25 308.671875 151.71875 307.871094 164.699219 Z M 325.085938 159.074219 C 333.75 165.972656 340.753906 180.574219 340.726562 191.683594 C 340.695312 202.796875 333.644531 206.207031 324.980469 199.308594 C 316.3125 192.40625 309.308594 177.808594 309.339844 166.699219 C 309.367188 155.589844 316.417969 152.171875 325.085938 159.074219 Z M 325.085938 159.074219 " fill-opacity="1" fill-rule="nonzero"/></g></g></g></g></svg>