<svg xmlns="http://www.w3.org/2000/svg" xmlns:xlink="http://www.w3.org/1999/xlink" width="1080" zoomAndPan="magnify" viewBox="0 0 810 809.999993" height="1080" preserveAspectRatio="xMidYMid meet" version="1.0"><defs><clipPath id="9ae71e734c"><path d="M 1.5 146 L 302 146 L 302 363 L 1.5 363 Z M 1.5 146 " clip-rule="nonzero"/></clipPath><clipPath id="9d4f02a82d"><path d="M 316 129.601562 L 491 129.601562 L 491 255 L 316 255 Z M 316 129.601562 " clip-rule="nonzero"/></clipPath></defs><path fill="#111010" d="M 198.273438 304.648438 L 432.949219 304.648438 L 589.621094 144.761719 L 542.339844 304.648438 L 811.5 304.648438 L 495.605469 463.4375 L 440.914062 649.398438 L 358.625 532.339844 L 65.171875 679.957031 L 296.402344 443.988281 Z M 198.273438 304.648438 " fill-opacity="1" fill-rule="nonzero"/><g clip-path="url(#9ae71e734c)"><path fill="#111010" d="M 55.066406 211.347656 L 149.515625 211.347656 L 212.578125 146.988281 L 193.554688 211.347656 L 301.902344 211.347656 L 174.734375 275.246094 L 152.730469 350.113281 L 119.605469 303 L 1.5 362.410156 L 94.558594 267.433594 Z M 55.066406 211.347656 " fill-opacity="1" fill-rule="nonzero"/></g><g clip-path="url(#9d4f02a82d)"><path fill="#111010" d="M 347.449219 167.074219 L 402.230469 167.074219 L 438.828125 129.742188 L 427.765625 167.074219 L 490.628906 167.074219 L 416.851562 204.144531 L 404.082031 247.550781 L 384.886719 220.234375 L 316.378906 254.699219 L 370.351562 199.601562 Z M 347.449219 167.074219 " fill-opacity="1" fill-rule="nonzero"/></g></svg>